<?xml version="1.0" encoding="utf-8"?>
<!-- Svg Vector Icons : http://www.onlinewebfonts.com/icon -->
<!DOCTYPE svg PUBLIC "-//W3C//DTD SVG 1.1//EN" "http://www.w3.org/Graphics/SVG/1.1/DTD/svg11.dtd">
<svg version="1.1" xmlns="http://www.w3.org/2000/svg" xmlns:xlink="http://www.w3.org/1999/xlink" x="0px" y="0px" viewBox="0 0 256 256" enable-background="new 0 0 256 256" xml:space="preserve">
<metadata> Svg Vector Icons : http://www.onlinewebfonts.com/icon </metadata>
<g> <path fill="#f5d030" d="M27.1,248.8l202.8-82.1c9-3.7,13.3-14.2,9.2-23C208,76.5,147.3,24.4,70.8,7C61,4.7,51.7,11.1,50.1,21.1 L15.4,239.5C14.4,246.1,20.9,251.3,27.1,248.8z"/> <path fill="#f39d19" d="M239.1,143.7C217,95.9,179.8,55.8,132.6,30.3c38,25.4,68.2,60.8,87.2,101.9c4.1,8.9-0.2,19.4-9.2,23 l-5.1,2.1C171.2,93,121.1,54.8,47.9,38.1L44,65c62.2,14.1,100.8,46.5,135,102.9L16.3,233.8l-0.9,5.7c-1,6.6,5.5,11.8,11.7,9.3 l202.8-82.1C238.9,163.1,243.2,152.6,239.1,143.7L239.1,143.7z"/> <path fill="#ffffff" d="M137.9,55.4c-0.8,0-1.5-0.2-2.2-0.8c-16.6-13-38.8-21.1-39-21.2c-1.8-0.7-2.8-2.7-2.1-4.5 c0.7-1.8,2.7-2.8,4.5-2.1c0.9,0.4,23.5,8.6,40.9,22.3c1.5,1.2,1.8,3.4,0.6,5C140,54.9,139,55.4,137.9,55.4L137.9,55.4z"/> <path fill="#ffffff" d="M80.8,25.8c0,2.6,2.1,4.6,4.6,4.6c2.6,0,4.6-2.1,4.6-4.6c0,0,0,0,0,0c0-2.6-2.1-4.6-4.6-4.6 C82.8,21.1,80.8,23.2,80.8,25.8C80.8,25.8,80.8,25.8,80.8,25.8z"/> <path fill="#f39d19" d="M64.2,79.6c0-12,5.8-22.5,14.8-29.1c5.9-4.3,19.6,7.3,24.9,10.4c10.6,6.2,32,5.5,32,18.7 c0,19.8-16.1,35.9-35.9,35.9C80.2,115.5,64.2,99.4,64.2,79.6z"/> <path fill="#ec671b" d="M77.6,71.3c0,3,2.4,5.4,5.4,5.4c3,0,5.4-2.4,5.4-5.4c0,0,0,0,0,0c0-3-2.4-5.4-5.4-5.4S77.6,68.3,77.6,71.3 C77.6,71.3,77.6,71.3,77.6,71.3z"/> <path fill="#ec671b" d="M108.1,85.6c0,3,2.4,5.4,5.4,5.4c3,0,5.4-2.4,5.4-5.4c0,0,0,0,0,0c0-3-2.4-5.4-5.4-5.4 C110.5,80.3,108.1,82.7,108.1,85.6C108.1,85.6,108.1,85.6,108.1,85.6z"/> <path fill="#ec671b" d="M88.9,93.9c1.1,1,2.8,0.8,3.8-0.3c1-1.1,0.8-2.8-0.3-3.8c0,0,0,0,0,0c-1.1-1-2.8-0.9-3.8,0.3 C87.6,91.2,87.8,92.9,88.9,93.9C88.9,93.9,88.9,93.9,88.9,93.9z"/> <path fill="#ec671b" d="M108.2,70.1c1.1,1,2.8,0.8,3.8-0.3c1-1.1,0.8-2.8-0.3-3.8v0c-1.1-1-2.8-0.8-3.8,0.3S107.1,69.1,108.2,70.1 L108.2,70.1z"/> <path fill="#f39d19" d="M121.3,209.8c-3.1-2.8-5.8-6.2-7.8-10.1c-9.1-17.6-2.2-39.3,15.4-48.4c17.6-9.1,39.3-2.2,48.4,15.4 c3.2,6.1,4.4,12.8,3.9,19.2L121.3,209.8z"/> <path fill="#ec671b" d="M139.8,170.9c1.4,2.6,4.6,3.7,7.2,2.3c2.6-1.4,3.7-4.6,2.3-7.2c0,0,0,0,0,0c-1.4-2.6-4.6-3.7-7.2-2.3 S138.4,168.3,139.8,170.9C139.8,170.9,139.8,170.9,139.8,170.9z"/> <path fill="#ec671b" d="M159.9,188.4c1.4,0.3,2.9-0.5,3.2-2c0.3-1.4-0.5-2.9-2-3.2c0,0,0,0,0,0c-1.4-0.3-2.9,0.5-3.2,2 C157.6,186.6,158.5,188.1,159.9,188.4C159.9,188.4,159.9,188.4,159.9,188.4z"/> <path fill="#ec671b" d="M130,182.2c1.4,0.3,2.9-0.5,3.2-2c0.3-1.4-0.5-2.9-2-3.2c0,0,0,0,0,0c-1.4-0.3-2.9,0.5-3.2,2 C127.6,180.4,128.5,181.9,130,182.2C130,182.2,130,182.2,130,182.2z"/> <path fill="#f39d19" d="M23.1,192.8c10.7,4,23.1,2.8,33.1-4.2c16.2-11.3,20.2-33.7,8.9-50c-7.1-10.2-18.5-15.5-30-15.4L23.1,192.8z "/> <path fill="#ec671b" d="M45.7,159.5c1.7,2.4,5,3,7.5,1.3s3-5,1.3-7.5c0,0,0,0,0,0c-1.7-2.4-5-3-7.5-1.3S44,157.1,45.7,159.5 C45.7,159.5,45.7,159.5,45.7,159.5z"/> <path fill="#ec671b" d="M34.7,177.3c1.5,0.2,2.8-0.9,3-2.4c0.2-1.5-0.9-2.8-2.4-3c0,0,0,0,0,0c-1.5-0.2-2.8,0.9-3,2.4 C32.1,175.8,33.2,177.1,34.7,177.3C34.7,177.3,34.7,177.3,34.7,177.3z"/> <path fill="#ec671b" d="M36.8,146.7c1.5,0.2,2.8-0.9,3-2.4c0.2-1.5-0.9-2.8-2.4-3c0,0,0,0,0,0c-1.5-0.2-2.8,0.9-3,2.4 C34.3,145.2,35.4,146.5,36.8,146.7C36.8,146.7,36.8,146.7,36.8,146.7z"/> <path fill="#643018" d="M118.1,28.8c1.2,0.6,1.7,0.8,2.4,1.2l1.4,0.7c0.8,0.4,1.6,0.6,2.4,0.6c1.9,0,3.8-1.1,4.8-3 c1.3-2.6,0.2-5.8-2.4-7.1l-1.4-0.7c-0.8-0.4-1.3-0.6-2.7-1.3c-2.7-1.2-5.8-0.1-7.1,2.6C114.2,24.4,115.4,27.6,118.1,28.8z  M243.9,141.5c-22.8-49.2-55.3-85.3-99.5-110.4c-2.6-1.4-5.8-0.6-7.2,2c-1.4,2.5-0.6,5.8,2,7.2c42.2,23.9,73.3,58.5,95.1,105.6 c1.3,2.9,1.4,6.1,0.2,9.2c-1.2,3.1-3.6,5.5-6.6,6.7l-138.1,56c-2.7,1.1-4,4.2-2.9,6.9c0.8,2.1,2.8,3.3,4.9,3.3c0.7,0,1.3-0.1,2-0.4 l138-56c5.7-2.3,10.3-6.9,12.5-12.6C246.7,153.3,246.5,147.1,243.9,141.5z"/> <path fill="#643018" d="M67.4,226.9l-42.3,17c-1.6,0.6-2.8-0.1-3.2-0.5c-0.4-0.4-1.4-1.4-1.2-3.1l31-195.3 c38.2,9.5,71.2,27.2,100.8,54.1c1,0.9,2.3,1.4,3.6,1.4c1.4,0,2.9-0.6,3.9-1.7c2-2.2,1.8-5.6-0.4-7.5 C128.9,63.4,93.2,44.4,53.3,34.6l2-12.6c0.5-3.4,2.3-6.3,5.1-8.1c2.7-1.8,6-2.4,9.2-1.7c12.5,2.9,20.7,5.3,31.3,9.5 c2.7,1.1,5.8-0.3,6.9-3c1.1-2.7-0.3-5.8-3-6.9C93.7,7.4,85.1,4.8,72,1.8C65.9,0.4,59.6,1.5,54.5,5c-5.2,3.5-8.6,8.9-9.6,15.2 L10.2,238.7c-0.8,5,1.1,9.9,5.1,13c2.5,2,5.6,3,8.6,3c1.8,0,3.5-0.3,5.3-1l42.3-17c2.7-1.1,4-4.2,3-6.9 C73.2,227.1,70.1,225.8,67.4,226.9L67.4,226.9z M203.2,158.7c-1.8,0-3.6-0.9-4.6-2.6c-9.7-16.7-18.3-28.3-29.5-40.4 c-2-2.2-1.9-5.5,0.3-7.5c2.1-2,5.5-1.9,7.5,0.3c11.8,12.6,20.7,24.9,30.9,42.3c1.5,2.5,0.6,5.8-1.9,7.3 C205.1,158.5,204.1,158.7,203.2,158.7L203.2,158.7z"/></g>
</svg>