<?xml version="1.0" encoding="utf-8"?>
<!-- Svg Vector Icons : http://www.onlinewebfonts.com/icon -->
<!DOCTYPE svg PUBLIC "-//W3C//DTD SVG 1.1//EN" "http://www.w3.org/Graphics/SVG/1.1/DTD/svg11.dtd">
<svg version="1.1" xmlns="http://www.w3.org/2000/svg" xmlns:xlink="http://www.w3.org/1999/xlink" x="0px" y="0px" viewBox="0 0 256 256" enable-background="new 0 0 256 256" xml:space="preserve">
<metadata> Svg Vector Icons : http://www.onlinewebfonts.com/icon </metadata>
<g> <path fill="#e2c756" d="M240.3,143c-1.1-22.7-23.8-40-50.6-38.7c-26.9,1.3-47.8,20.7-46.7,43.4c1.1,22.7,23.8,40,50.6,38.7 C220.5,185.1,241.4,165.7,240.3,143L240.3,143z M182.5,168.4c-19.3,0.9-35.5-8.4-36.1-20.9c-0.6-12.5,14.6-23.4,33.9-24.3 c19.3-0.9,35.5,8.4,36.1,20.9C216.9,156.7,201.8,167.5,182.5,168.4z"/> <path fill="#040000" d="M190.8,192.1c-13.2,0-25.7-4.1-35.6-11.6c-10.9-8.3-17.3-19.9-17.8-32.5c-0.6-12.6,4.6-24.8,14.7-34.1 c9.8-9.1,23.1-14.5,37.4-15.2c14.3-0.7,28.1,3.4,38.7,11.5c10.9,8.3,17.3,19.9,17.8,32.5c0.6,12.6-4.6,24.8-14.7,34.1 c-9.8,9.1-23.1,14.5-37.4,15.2C192.8,192.1,191.8,192.1,190.8,192.1z M161.4,171.1c7.6,6.1,18,9.8,29.4,9.8c0.9,0,1.7,0,2.5-0.1 c11.7-0.6,22.4-4.9,30.3-12.2c7.6-7,11.5-16,11.1-25.3c-0.4-9.3-5.2-17.9-13.4-24.1c-8.5-6.5-19.6-9.8-31.3-9.2 c-11.7,0.6-22.4,4.9-30.3,12.2c-0.2,0.2-0.4,0.4-0.6,0.6c6.2-2.9,13.4-4.7,21-5.1c10.4-0.5,20.4,1.7,28.2,6.2 c8.5,4.9,13.4,12.1,13.8,20.1c0.4,8-3.8,15.6-11.8,21.3c-7.3,5.2-17,8.3-27.4,8.9C175.1,174.5,167.8,173.4,161.4,171.1z M183,128.8 c-0.8,0-1.6,0-2.4,0.1c-8.3,0.4-15.9,2.8-21.4,6.7c-2.8,2-7.4,6.1-7.1,11.6c0.3,5.5,5.3,9.2,8.2,10.9c5.9,3.4,13.7,5.1,21.9,4.7 c8.3-0.4,15.9-2.8,21.4-6.8c2.8-2,7.4-6.1,7.1-11.6s-5.3-9.2-8.2-10.9C197.2,130.5,190.3,128.8,183,128.8z"/> <path fill="#e2c756" d="M177.4,224.5H44.5c-3.9,0-7.1-3.2-7.1-7.1V79.9c0-3.9,3.2-7.1,7.1-7.1h132.9c3.9,0,7.1,3.2,7.1,7.1v137.6 C184.5,221.3,181.3,224.5,177.4,224.5z"/> <path fill="#040000" d="M177.7,230.1H44.2c-6.8,0-12.4-5.6-12.4-12.4V79.5c0-6.8,5.6-12.4,12.4-12.4h133.5 c6.8,0,12.4,5.6,12.4,12.4v138.2C190.1,224.6,184.6,230.1,177.7,230.1z M44.2,78.4c-0.6,0-1.1,0.5-1.1,1.1v138.2 c0,0.6,0.5,1.1,1.1,1.1h133.5c0.6,0,1.1-0.5,1.1-1.1V79.5c0-0.6-0.5-1.1-1.1-1.1H44.2z"/> <path fill="#ffffff" d="M118.4,196.6h-15.1c-1,0-1.8-0.8-1.8-1.8v-64.9c0-1,0.8-1.8,1.8-1.8h15.1c1,0,1.8,0.8,1.8,1.8v64.9 C120.2,195.8,119.4,196.6,118.4,196.6z"/> <path fill="#040000" d="M118.5,202.3h-15.2c-4.1,0-7.3-3.3-7.3-7.3v-65.1c0-4.1,3.3-7.3,7.3-7.3h15.2c4.1,0,7.3,3.3,7.3,7.3v65.1 C125.9,199,122.6,202.3,118.5,202.3z M107.2,191h7.3v-57.2h-7.3V191z"/> <path fill="#ffffff" d="M155.9,196.6h-15.1c-1,0-1.8-0.8-1.8-1.8v-64.9c0-1,0.8-1.8,1.8-1.8h15.1c1,0,1.8,0.8,1.8,1.8v64.9 C157.7,195.8,156.9,196.6,155.9,196.6z"/> <path fill="#040000" d="M156,202.3h-15.2c-4.1,0-7.3-3.3-7.3-7.3v-65.1c0-4.1,3.3-7.3,7.3-7.3H156c4.1,0,7.3,3.3,7.3,7.3v65.1 C163.4,199,160.1,202.3,156,202.3z M144.7,191h7.3v-57.2h-7.3V191z"/> <path fill="#ffffff" d="M81,196.6H66c-1,0-1.8-0.8-1.8-1.8v-64.9c0-1,0.8-1.8,1.8-1.8H81c1,0,1.8,0.8,1.8,1.8v64.9 C82.8,195.8,82,196.6,81,196.6z"/> <path fill="#040000" d="M81.1,202.3H65.9c-4.1,0-7.3-3.3-7.3-7.3v-65.1c0-4.1,3.3-7.3,7.3-7.3h15.2c4.1,0,7.3,3.3,7.3,7.3v65.1 C88.4,199,85.2,202.3,81.1,202.3z M69.8,191h7.3v-57.2h-7.3V191z"/> <path fill="#f4ebd9" d="M180,31.5H41.9c-14.4,0-26.3,11.8-26.3,26.3v17.5c0,14,16,36.8,25.1,26.2c6.2-7.2,0.4-17.9,10.4-21.7 c6.2-2.4,13.3,0.7,18.3,5.2c5,4.4,7,15.1,13.6,14.6c5.6-0.4,7.3-8.6,10.9-12.9c4.5-5.3,9.6-11,16.5-11.9c7.4-1,14.3,3.8,19.3,9.2 c5.1,5.4,9.5,19.9,15.6,15.7c9.4-6.4,5.7-24.5,17.1-24.7c6.7-0.1,12.9,4.2,16.6,9.8c3.2,4.9,1.1,13,6,16.3 c10.2,6.8,21.1-13.1,21.1-25.7V57.7C206.3,43.3,194.4,31.5,180,31.5z"/> <path fill="#040000" d="M35.3,109.8c-1.6,0-3.2-0.3-4.8-0.9c-6.9-2.6-12-9.8-14.4-13.9C12.3,88.4,10,81.2,10,75.2V57.7 c0-17.6,14.3-31.9,31.9-31.9H180c17.6,0,31.9,14.3,31.9,31.9v17.5c0,10.7-6.5,26-15.9,31c-4.7,2.5-9.7,2.3-14-0.6 c-4.8-3.3-5.7-8.7-6.2-12.7c-0.3-2-0.6-4.1-1.3-5.2c-3-4.5-7.6-7.3-11.8-7.3c-1.7,0-2.5,1-4.5,7.7c-1.6,5.4-3.7,12-9.5,16 c-2.9,2-5.6,1.9-7.3,1.5c-5.3-1.2-8.5-6.7-11.6-12c-1.4-2.4-2.8-4.8-4-6.1c-2.9-3.1-8.7-8.3-14.4-7.5c-4.7,0.7-8.9,5.1-13,10 c-0.8,1-1.7,2.6-2.5,4.2c-2.3,4.3-5.4,10.2-12.3,10.7c-2.5,0.2-6.2-0.4-9.6-4.1c-1.8-2-3.2-4.4-4.6-6.7c-1.2-2.1-2.4-4.2-3.6-5.2 c-3.2-2.9-8.4-5.7-12.6-4.1c-2.2,0.8-2.6,1.7-3.3,6.8c-0.5,4-1.1,9-4.9,13.4C42.4,108.2,39,109.8,35.3,109.8L35.3,109.8z  M41.9,37.1c-11.4,0-20.6,9.2-20.6,20.6v17.5c0,8.6,7.8,21.1,13.2,23.1c0.9,0.3,1.3,0.3,2-0.6c1.6-1.8,1.9-4.4,2.2-7.4 c0.6-5,1.6-12.6,10.4-15.9c7.5-2.8,16.5-0.5,24.1,6.2c2.5,2.2,4.3,5.4,5.9,8.1c0.9,1.7,2.7,4.7,3.6,5.2c0.8-0.4,2.3-3.2,3.1-4.7 c1.1-2.1,2.2-4.3,3.8-6.2c4.2-5,10.7-12.6,20.1-13.9c8.1-1.1,16.5,2.7,24.2,11c2,2.2,3.8,5.2,5.5,8.1c1,1.7,2.6,4.5,3.9,6 c1.9-2,3-5.5,4.1-9.1c1-3.3,2-6.7,3.9-9.6c2.6-3.9,6.5-6.1,11.2-6.2h0.3c7.9,0,16,4.7,21,12.3c2.1,3.1,2.6,6.7,3.1,9.8 c0.3,1.9,0.7,4.5,1.4,5c0.7,0.5,1.3,0.6,2.4,0c4.8-2.6,9.9-13.4,9.9-21.1V57.7c0-11.4-9.2-20.6-20.6-20.6H41.9z"/></g>
</svg>