<?xml version="1.0" encoding="utf-8"?>
<!-- Svg Vector Icons : http://www.onlinewebfonts.com/icon -->
<!DOCTYPE svg PUBLIC "-//W3C//DTD SVG 1.1//EN" "http://www.w3.org/Graphics/SVG/1.1/DTD/svg11.dtd">
<svg version="1.1" xmlns="http://www.w3.org/2000/svg" xmlns:xlink="http://www.w3.org/1999/xlink" x="0px" y="0px" viewBox="0 0 256 256" enable-background="new 0 0 256 256" xml:space="preserve">
<metadata> Svg Vector Icons : http://www.onlinewebfonts.com/icon </metadata>
<g> <path fill="#dc5553" d="M35.4,184.3c-9.9,0-18-8.1-18-18c0-9.9,8.1-18,18-18h185.3c9.9,0,18,8.1,18,18c0,9.9-8.1,18-18,18H35.4z"/> <path fill="#3d2b1f" d="M220.6,153c7.3,0,13.3,6,13.3,13.3c0,7.3-6,13.3-13.3,13.3H35.4c-7.3,0-13.3-6-13.3-13.3 c0-7.3,6-13.3,13.3-13.3H220.6 M220.6,143.7H35.4c-12.5,0-22.6,10.2-22.6,22.6c0,12.5,10.2,22.6,22.6,22.6h185.3 c12.5,0,22.6-10.2,22.6-22.6C243.3,153.8,233.1,143.7,220.6,143.7z"/> <path fill="#eabd3f" d="M31.6,216.3c-9.4,0-17-8.9-17-19.9c0-9,4.9-12.7,17-12.7h192.7c12.1,0,17,3.7,17,12.7 c0,10.9-7.6,19.9-17,19.9H31.6z"/> <path fill="#3d2b1f" d="M224.4,188.4c11.5,0,12.3,3.2,12.3,8.1c0,8.4-5.5,15.2-12.3,15.2H31.6c-6.8,0-12.3-6.8-12.3-15.2 c0-4.9,0.8-8.1,12.3-8.1H224.4 M224.4,179.1H31.6c-5.4,0-21.6,0-21.6,17.4C10,210,19.7,221,31.6,221h192.7 c11.9,0,21.6-11,21.6-24.5C246,179.1,229.7,179.1,224.4,179.1z"/> <path fill="#ecc64c" d="M36.7,129.4c-12.1,0-22-9.9-22-22c0-18,11.7-35,33.1-47.8c21.4-12.9,50-19.9,80.3-19.9 c30.3,0,58.8,7.1,80.3,19.9c21.3,12.8,33.1,29.8,33.1,47.8c0,12.2-9.9,22-22,22H36.7z"/> <path fill="#3d2b1f" d="M128,44.3c29.5,0,57.2,6.8,77.9,19.3c19.9,11.9,30.8,27.5,30.8,43.7c0,9.6-7.8,17.4-17.4,17.4H36.7 c-9.6,0-17.4-7.8-17.4-17.4c0-16.3,10.9-31.8,30.8-43.7C70.8,51.2,98.5,44.3,128,44.3 M128,35c-31.2,0-60.5,7.3-82.7,20.6 C22.5,69.2,10,87.6,10,107.3c0,14.7,12,26.7,26.7,26.7h182.6c14.7,0,26.7-12,26.7-26.7c0-19.7-12.5-38.1-35.3-51.7 C188.5,42.3,159.2,35,128,35z"/> <path fill="#edc260" d="M32.2,153c0,0,46.6,26.3,52.2,42.8c0,0,32.9-33.5,86.1-42.8H32.2L32.2,153z"/> <path fill="#3d2b1f" d="M84.4,200.5c-0.3,0-0.7,0-1-0.1c-1.6-0.4-2.9-1.5-3.4-3c-3.7-10.8-32.7-30.4-50.1-40.3 c-1.8-1-2.7-3.2-2.2-5.3c0.5-2.1,2.4-3.5,4.5-3.5h138.3c2.4,0,4.4,1.8,4.6,4.3c0.2,2.4-1.5,4.6-3.8,5 c-51.1,8.9-83.3,41.2-83.6,41.5C86.9,200,85.6,200.5,84.4,200.5z M48.9,157.7c12.4,8,29.3,20,36.8,30.7 c7.9-6.9,25.7-20.7,51.2-30.7H48.9z"/> <path fill="#3d2b1f" d="M126.1,63.1c0,3.1,2.5,5.6,5.6,5.6c3.1,0,5.6-2.5,5.6-5.6c0,0,0,0,0,0c0-3.1-2.5-5.6-5.6-5.6 C128.6,57.5,126.1,60,126.1,63.1z"/> <path fill="#3d2b1f" d="M69.4,82.9c0,3.1,2.5,5.6,5.6,5.6c3.1,0,5.6-2.5,5.6-5.6c0-3.1-2.5-5.6-5.6-5.6 C71.9,77.3,69.4,79.8,69.4,82.9z"/> <path fill="#3d2b1f" d="M179.7,82.9c0,3.1,2.5,5.6,5.6,5.6c3.1,0,5.6-2.5,5.6-5.6c0-3.1-2.5-5.6-5.6-5.6 C182.2,77.3,179.7,79.8,179.7,82.9z"/> <path fill="#75b46b" d="M72.8,163.2c-2.1,0-4.1-0.3-5.9-0.9c-5.2-1.7-8.8-5.4-12.1-8.7c-0.8-0.8-1.6-1.6-2.4-2.4l-0.3,0.1 c-3.3,1.4-7.5,3.1-11.9,3.1c-3.7,0-6.9-1.2-9.7-3.6c-2-1.8-3.4-2.3-4.5-2.7c-6.2-2.4-4.6-7.3-3.8-10c2.2-7,7.8-7.4,11.5-7.7 c1.4-0.1,2.8-0.2,4.2-0.6c0.4-0.1,0.8-0.2,1.2-0.2l185.1,1.2c1,0,2,0.3,2.8,1l0.4,0.3c7.5,5.7,9.8,8.8,3.7,18.3 c-3.8,5.9-10.7,9.5-18.1,9.5c-3.5,0-7-0.9-10-2.5c-3.5-1.9-6.2-4.7-8.6-7.1l-0.3-0.3c-0.9,0.7-1.8,1.5-2.8,2.4 c-1.2,1.1-2.5,2.2-3.9,3.2c-2.9,2-6,3.1-9,3.1c-1.5,0-3-0.3-4.4-0.8c-3.3-1.3-5.3-4-6.9-6.2c-3.5,5.8-9.5,10-16.3,11 c-1.1,0.2-2.1,0.2-3.2,0.2c-6.3,0-12.4-2.6-16.8-7c-4.9,4.6-9.6,6.8-14.4,6.8c-1.1,0-2.1-0.1-3.1-0.3c-6.6-1.4-10.6-6.7-13.2-11.5 c-5.6,4.5-11.9,8.8-19.3,11C78,162.8,75.3,163.2,72.8,163.2L72.8,163.2z"/> <path fill="#3d2b1f" d="M39.1,134.3l185.1,1.2c6.7,5,7.4,5.4,3,12.4c-3,4.7-8.6,7.4-14.2,7.4c-2.7,0-5.3-0.6-7.7-1.9 c-3-1.7-5.4-4.2-7.8-6.7c-0.9-0.9-1.9-1.8-3.1-1.8h0c-0.8,0-1.6,0.4-2.3,0.9c-2.6,1.7-4.7,4.2-7.3,6c-1.8,1.3-4.1,2.2-6.3,2.2 c-0.9,0-1.8-0.2-2.6-0.5c-4.5-1.8-5.9-8.2-10.4-9.9c-1.5,7.3-7.9,13.3-15.2,14.4c-0.8,0.1-1.7,0.2-2.5,0.2 c-6.6,0-13.2-3.7-16.5-9.5c-3.9,4.6-9,9.3-14.8,9.3c-0.7,0-1.4-0.1-2.2-0.2c-6.4-1.3-9.9-8.3-12.4-14.4c-6.8,5.7-13.9,11.4-22.4,14 c-2.1,0.7-4.4,1.1-6.7,1.1c-1.5,0-3-0.2-4.5-0.7c-5.2-1.7-8.8-6.3-12.7-10.1c-0.7-0.7-1.5-1.3-2.4-1.5c-0.2,0-0.3,0-0.4,0 c-0.7,0-1.5,0.3-2.1,0.6c-3.1,1.3-6.9,2.9-10.5,2.9c-2.3,0-4.5-0.7-6.6-2.5c-6.5-5.7-8.7-2.1-6.9-7.8 C28.5,133.7,33.2,135.9,39.1,134.3 M39.1,125c-0.8,0-1.6,0.1-2.3,0.3c-1,0.2-2.1,0.3-3.3,0.4c-3.7,0.3-12.5,0.9-15.7,11 c-3,9.7,1.9,13.9,6.6,15.7c0.9,0.3,1.7,0.7,3.1,1.9c3.6,3.1,7.9,4.8,12.8,4.8c4.1,0,7.9-1.2,11.1-2.4c0.1,0.1,0.1,0.1,0.2,0.2 c3.4,3.5,7.7,7.9,14,9.9c2.3,0.7,4.8,1.1,7.3,1.1c3,0,6.1-0.5,9.4-1.5c6.3-1.9,11.8-5.1,16.7-8.7c3,4.1,7.3,8,13.4,9.3 c1.3,0.3,2.7,0.4,4.1,0.4c5.8,0,10.7-2.5,14.5-5.4c4.8,3.5,10.7,5.5,16.8,5.5c1.3,0,2.6-0.1,3.9-0.3c6.1-0.9,11.6-3.9,15.8-8.3 c1.3,1.2,2.9,2.3,4.9,3.1c1.9,0.8,4,1.2,6.2,1.2c5,0,9.1-2.1,11.6-3.9c1.5-1,2.7-2.1,3.8-3.1c2,1.8,4.2,3.7,6.9,5.2 c3.6,2,7.9,3.1,12.2,3.1c9,0,17.4-4.5,22-11.7c7.6-11.9,4.4-17.6-4.8-24.6l-0.4-0.3c-1.6-1.2-3.6-1.9-5.6-1.9L39.1,125L39.1,125z" /></g>
</svg>