<?xml version="1.0" encoding="utf-8"?>
<!-- Svg Vector Icons : http://www.onlinewebfonts.com/icon -->
<!DOCTYPE svg PUBLIC "-//W3C//DTD SVG 1.1//EN" "http://www.w3.org/Graphics/SVG/1.1/DTD/svg11.dtd">
<svg version="1.1" xmlns="http://www.w3.org/2000/svg" xmlns:xlink="http://www.w3.org/1999/xlink" x="0px" y="0px" viewBox="0 0 256 256" enable-background="new 0 0 256 256" xml:space="preserve">
<metadata> Svg Vector Icons : http://www.onlinewebfonts.com/icon </metadata>
<g> <path fill="#333333" d="M196.7,49.4H59.3c-4.7,0-8.6-3.8-8.6-8.6l0,0V18.6c0-4.7,3.9-8.6,8.6-8.6l0,0h137.4c4.7,0,8.6,3.8,8.6,8.6 v22.2C205.3,45.5,201.4,49.4,196.7,49.4z M60.6,39.5h134.9V19.8H60.6V39.5z"/> <path fill="#333333" d="M214.8,78.8H41.2c-4.7,0-8.6-3.8-8.6-8.6l0,0V48.1c0-4.7,3.8-8.6,8.6-8.6l0,0h173.5c4.7,0,8.6,3.8,8.6,8.6 v22.1C223.4,74.9,219.5,78.8,214.8,78.8z M42.5,69h171.1V49.4H42.5V69z"/> <path fill="#e9515c" d="M179.7,241.1H76.3c-1.4,0-2.7-1.2-2.8-2.8L56.2,78.8c-0.3-2.7,1-4.9,2.9-4.9H197c1.9,0,3.2,2.2,2.9,4.9 l-17.3,159.6C182.4,239.8,181.1,241.1,179.7,241.1z"/> <path fill="#333333" d="M179.7,246H76.3c-3.9,0-7.3-3.1-7.7-7.2L51.3,79.3c-0.3-3,0.5-5.9,2.3-7.8c1.4-1.6,3.4-2.5,5.5-2.5H197 c2.1,0,4.1,0.9,5.5,2.5c1.8,2,2.6,4.8,2.3,7.8l-17.3,159.6C187,242.9,183.6,246,179.7,246L179.7,246z M78.1,236.2h99.7l17-157.4 H61.1L78.1,236.2z"/></g>
</svg>