<?xml version="1.0" encoding="utf-8"?>
<!-- Svg Vector Icons : http://www.onlinewebfonts.com/icon -->
<!DOCTYPE svg PUBLIC "-//W3C//DTD SVG 1.1//EN" "http://www.w3.org/Graphics/SVG/1.1/DTD/svg11.dtd">
<svg version="1.1" xmlns="http://www.w3.org/2000/svg" xmlns:xlink="http://www.w3.org/1999/xlink" x="0px" y="0px" viewBox="0 0 256 256" enable-background="new 0 0 256 256" xml:space="preserve">
<metadata> Svg Vector Icons : http://www.onlinewebfonts.com/icon </metadata>
<g> <path fill="#e84a8a" d="M157.1,136.7c1.1,0,2.1,0.9,2.1,2.1s-0.9,2.1-2.1,2.1c-1.1,0-2.1-0.9-2.1-2.1S155.9,136.7,157.1,136.7z  M159.2,186.4c0,2.3-1.9,4.2-4.1,4.2c-2.3,0-4.1-1.9-4.1-4.2c0.1-2.3,2-4.1,4.2-4C157.3,182.4,159.1,184.2,159.2,186.4L159.2,186.4 z M123,214.1c-2.8,0.1-5.1-2.2-5.2-5c0.1-2.7,2.3-4.9,5-5c2.8,0,5.1,2.2,5.2,5C128,211.8,125.8,214,123,214.1z"/> <path fill="#e84a8a" d="M94.8,172.2c0,3.5,2.8,6.3,6.2,6.3c3.5,0,6.3-2.8,6.3-6.2c0,0,0,0,0,0c0-3.5-2.8-6.3-6.2-6.3 C97.6,166,94.8,168.8,94.8,172.2C94.8,172.2,94.8,172.2,94.8,172.2z"/> <path fill="#e84a8a" d="M121.7,145.9c3,0,5.5,2.5,5.5,5.5c0,3-2.5,5.5-5.5,5.5c-3,0-5.5-2.5-5.5-5.5 C116.2,148.4,118.7,145.9,121.7,145.9z"/> <path fill="#e84a8a" d="M171.6,133.4l-4.7,101.7H88.3l-5.1-111.3c0.1,0.1,0.2,0.3,0.2,0.4c2.8,4.4,6.6,10.3,14.5,10.3 c7.9,0,11.7-5.9,14.5-10.3c2.6-4,3.6-5.3,5.3-5.3c1.7,0,2.8,1.2,5.3,5.3c2.8,4.3,6.5,10.3,14.5,10.3c7.9,0,11.7-6,14.5-10.3 c2.5-3.9,3.6-5.3,5.3-5.3c1.7,0,2.8,1.2,5.3,5.3C164.6,127.4,167.2,131.5,171.6,133.4L171.6,133.4z M164.6,138.7 c0-4.1-3.4-7.5-7.5-7.5c-4.1,0-7.5,3.4-7.5,7.5c0,4.1,3.4,7.5,7.5,7.5C161.2,146.3,164.6,142.9,164.6,138.7z M164.6,186.4 c0-5.3-4.3-9.6-9.6-9.6c-5.3,0-9.6,4.3-9.6,9.6c0,5.3,4.3,9.6,9.6,9.6C160.3,196,164.6,191.7,164.6,186.4z M133.4,209.1 c0-5.8-4.7-10.5-10.5-10.5c-5.8,0-10.5,4.7-10.5,10.5c0,5.8,4.7,10.5,10.5,10.5C128.7,219.6,133.4,214.9,133.4,209.1z M133.4,151.4 c0-6.5-5.3-11.7-11.7-11.7s-11.7,5.3-11.7,11.7c0,6.5,5.3,11.7,11.7,11.7S133.4,157.9,133.4,151.4L133.4,151.4z M112.9,172.2 c0-6.5-5.3-11.8-11.8-11.8c-6.5,0-11.8,5.3-11.8,11.8s5.3,11.8,11.8,11.8C107.6,184.1,112.9,178.8,112.9,172.2z"/> <path fill="#4b4499" d="M157.1,131.2c4.1,0,7.5,3.4,7.5,7.5c0,4.1-3.4,7.5-7.5,7.5c-4.1,0-7.5-3.4-7.5-7.5 C149.6,134.6,152.9,131.2,157.1,131.2z M160.5,138.7c0-1.9-1.5-3.4-3.4-3.4c-1.9-0.1-3.4,1.4-3.5,3.3c0,1.9,1.4,3.4,3.3,3.5 c0.1,0,0.1,0,0.2,0C158.9,142.1,160.5,140.6,160.5,138.7z M155,176.8c5.3,0,9.6,4.3,9.6,9.6c0,5.3-4.3,9.6-9.6,9.6 c-5.3,0-9.6-4.3-9.6-9.6C145.4,181.1,149.7,176.8,155,176.8z M155,191.2c2.7,0,4.8-2.2,4.8-4.8c0-2.7-2.2-4.8-4.8-4.8 c-2.7,0-4.8,2.2-4.8,4.8C150.2,189.1,152.4,191.2,155,191.2z"/> <path fill="#e84a8a" d="M157.1,140.8c1.1,0,2.1-0.9,2.1-2.1s-0.9-2.1-2.1-2.1c-1.1,0-2.1,0.9-2.1,2.1S155.9,140.8,157.1,140.8z  M157.1,135.4c1.9,0,3.4,1.5,3.4,3.4c0,1.9-1.5,3.4-3.4,3.4c-1.9,0-3.3-1.6-3.3-3.5C153.9,136.9,155.3,135.4,157.1,135.4 L157.1,135.4z M150.9,186.4c0,2.3,1.9,4.2,4.1,4.2c2.3,0,4.1-1.9,4.1-4.2c0-2.3-1.9-4.1-4.1-4.1 C152.7,182.3,150.9,184.1,150.9,186.4L150.9,186.4z M150.2,186.4c0-2.7,2.2-4.8,4.8-4.8c2.7,0,4.8,2.2,4.8,4.8 c0,2.7-2.2,4.8-4.8,4.8C152.4,191.2,150.2,189.1,150.2,186.4z"/> <path fill="#4b4499" d="M146.5,12.2c-0.1,0.1-0.2,0.2-0.2,0.3C146.4,12.4,146.4,12.3,146.5,12.2z M122.9,198.6 c5.8,0,10.5,4.7,10.5,10.5c0,5.8-4.7,10.5-10.5,10.5c-5.8,0-10.5-4.7-10.5-10.5C112.4,203.3,117.1,198.6,122.9,198.6z M128.3,209.1 c0-2.9-2.4-5.3-5.3-5.3c-2.9,0-5.3,2.4-5.3,5.3c0,2.9,2.4,5.3,5.3,5.3C125.9,214.4,128.3,212,128.3,209.1z M121.7,139.7 c6.5,0,11.7,5.3,11.7,11.7c0,6.5-5.3,11.7-11.7,11.7s-11.7-5.3-11.7-11.7C110,144.9,115.2,139.7,121.7,139.7z M128,151.4 c0-3.5-2.8-6.3-6.3-6.3s-6.3,2.8-6.3,6.3c0,3.5,2.8,6.3,6.3,6.3S128,154.9,128,151.4z"/> <path fill="#e84a8a" d="M122.8,204.1c-2.7,0.1-4.9,2.3-5,5c0,2.8,2.4,5,5.2,5c2.7,0,4.9-2.2,5-5C128,206.3,125.6,204.1,122.8,204.1 z M117.6,209.1c0-2.9,2.4-5.3,5.3-5.3c2.9,0,5.3,2.4,5.3,5.3c0,2.9-2.4,5.3-5.3,5.3C120,214.4,117.6,212,117.6,209.1z"/> <path fill="#4b4499" d="M115.4,151.4c0-3.5,2.8-6.3,6.3-6.3s6.3,2.8,6.3,6.3c0,3.5-2.8,6.3-6.3,6.3S115.4,154.9,115.4,151.4z  M121.7,145.9c-3,0-5.5,2.5-5.5,5.5c0,3,2.5,5.5,5.5,5.5c3,0,5.5-2.5,5.5-5.5C127.2,148.4,124.7,145.9,121.7,145.9z M101.1,160.4 c6.5,0,11.8,5.3,11.8,11.8s-5.3,11.8-11.8,11.8c-6.5,0-11.8-5.3-11.8-11.8S94.6,160.4,101.1,160.4L101.1,160.4z M107.5,172.2 c0-3.5-2.9-6.4-6.4-6.4c-3.5,0-6.4,2.9-6.4,6.4s2.9,6.4,6.4,6.4C104.6,178.7,107.5,175.8,107.5,172.2L107.5,172.2z"/> <path fill="#4b4499" d="M94.8,172.2c0,3.4,2.8,6.2,6.2,6.2c3.4,0,6.2-2.8,6.2-6.2s-2.8-6.2-6.2-6.2C97.6,166,94.8,168.8,94.8,172.2 z M107.5,172.2c0,3.5-2.9,6.4-6.4,6.4c-3.5,0-6.4-2.9-6.4-6.4c0,0,0,0,0,0c0-3.5,2.9-6.4,6.4-6.4 C104.6,165.8,107.5,168.7,107.5,172.2z"/> <path fill="#4b4499" d="M192.9,64.5h-53l14.8-43.6h25.3c3,0,5.4-2.4,5.4-5.4c0-3-2.4-5.4-5.4-5.4h-29.2c-1.8,0-3.4,0.9-4.3,2.2 c-0.1,0.1-0.2,0.2-0.2,0.3c-0.2,0.3-0.3,0.6-0.5,0.9c0,0.1-0.1,0.2-0.1,0.2l-17.3,50.7c0,0,0,0,0,0H63.1c-0.1,0-0.3,0-0.5,0 c-3,0.3-5.2,2.9-5,5.9l1.9,22.1c0.2,2.8,2.6,5,5.4,5h6l0.7,16l5.9,127.3c0.1,2.9,2.5,5.2,5.4,5.2h89c2.9,0,5.3-2.3,5.4-5.2 l5.2-111.8l1.5-31.6h6.8c2.8,0,5.2-2.1,5.4-5l2-22.1c0-0.2,0-0.3,0-0.5C198.3,66.9,195.9,64.5,192.9,64.5z M166.9,235.1H88.3 l-5.1-111.3c0.1,0.1,0.2,0.3,0.2,0.4c2.8,4.4,6.6,10.3,14.5,10.3c7.9,0,11.7-5.9,14.5-10.3c2.6-4,3.6-5.3,5.3-5.3 c1.7,0,2.8,1.2,5.3,5.3c2.8,4.3,6.5,10.3,14.5,10.3c7.9,0,11.7-6,14.5-10.3c2.5-3.9,3.6-5.3,5.3-5.3c1.7,0,2.8,1.2,5.3,5.3 c2,3.2,4.6,7.3,9.1,9.2L166.9,235.1z M185.9,86.6h-7c-2.9,0-5.3,2.3-5.4,5.2l-1.3,27.4c-0.2-0.3-0.3-0.5-0.5-0.8 c-2.8-4.3-6.5-10.3-14.5-10.3c-7.9,0-11.7,5.9-14.5,10.3c-2.6,4-3.6,5.3-5.3,5.3c-1.7,0-2.8-1.3-5.3-5.3 c-2.8-4.4-6.5-10.3-14.5-10.3c-7.9,0-11.7,5.9-14.5,10.3c-2.5,3.9-3.6,5.3-5.3,5.3c-1.7,0-2.8-1.2-5.3-5.3c-1.4-2.2-3-4.7-5.3-6.8 c-1.4-1.2-2.9-2.2-4.8-2.9l-0.8-16.9c-0.1-2.9-2.5-5.2-5.4-5.2H70l-1-11.2H187L185.9,86.6z"/></g>
</svg>